<svg xmlns="http://www.w3.org/2000/svg" viewBox="0 0 29.706 29.404"><defs><style>.a{fill:#fff;}</style></defs><g transform="translate(-305.402 -38.628)"><path class="a" d="M71.464,173.9v-2.574l-2.336-.858a8.46,8.46,0,0,0-.88-2.21l.023,0,1.112-2.316-1.815-1.82-2.313,1.1,0,0a8.4,8.4,0,0,0-2.209-.863L62.186,162H59.612l-.858,2.36a8.464,8.464,0,0,0-2.21.892l0-.018-2.316-1.109-1.82,1.816,1.1,2.314,0,0a8.758,8.758,0,0,0-1.007,2.209l-2.5.858V173.9l2.5.858a8.641,8.641,0,0,0,.964,2.21l.018,0-1.091,2.315,1.825,1.82,2.318-1.1,0,0a8.736,8.736,0,0,0,2.211.983l.859,2.48h2.574l.858-2.48a8.633,8.633,0,0,0,2.21-.952l0-.013,2.316,1.094,1.82-1.824-1.1-2.318,0,0a8.372,8.372,0,0,0,.84-2.21Zm-10.565,3a4.29,4.29,0,1,1,4.29-4.29A4.29,4.29,0,0,1,60.9,176.9Z" transform="translate(255.402 -115.433)"/><path class="a" d="M309.079,56.057l-.563-1.359-1.457.073a4.859,4.859,0,0,0-.966-.967l0,0,.076-1.463-1.358-.563-.982,1.088v0a4.857,4.857,0,0,0-1.368,0l-.982-1.089-1.359.563L300.2,53.8a4.845,4.845,0,0,0-.965.969l0,0-1.463-.075-.562,1.358,1.088.981,0,0a5.337,5.337,0,0,0-.01,1.371l-1.1.984.563,1.359,1.47-.078a4.877,4.877,0,0,0,.972.964v0l-.074,1.463,1.489.563,1.112-1.088v0a4.326,4.326,0,0,0,1.238,0l.917,1.089,1.327-.563-.093-1.464a4.834,4.834,0,0,0,.958-.969h0l1.461.075.562-1.359L308,58.4h0a4.873,4.873,0,0,0,0-1.365Zm-4.993,3.926a2.451,2.451,0,1,1,1.327-3.2A2.451,2.451,0,0,1,304.086,59.983Z" transform="translate(26.016 -13.146)"/></g></svg>